HIERARCHY
ROOT root
{
	OFFSET 0.000000 0.000000 0.000000
	CHANNELS 6 Xposition Yposition Zposition Zrotation Yrotation Xrotation
	JOINT lhip
	{
		OFFSET 0.058581 -0.082280 -0.017664
		CHANNELS 3 Zrotation Yrotation Xrotation
		JOINT lknee
		{
			OFFSET 0.043451 -0.386469 0.008037
			CHANNELS 3 Zrotation Yrotation Xrotation
			JOINT lankle
			{
				OFFSET -0.014790 -0.426874 -0.037428
				CHANNELS 3 Zrotation Yrotation Xrotation
				JOINT ltoe
				{
					OFFSET 0.041054 -0.060286 0.122042
					CHANNELS 3 Zrotation Yrotation Xrotation
					End Site
					{
						OFFSET 0.000000 0.000000 0.000000
					}
				}
			}
		}
	}
	JOINT rhip
	{
		OFFSET -0.060310 -0.090513 -0.013543
		CHANNELS 3 Zrotation Yrotation Xrotation
		JOINT rknee
		{
			OFFSET -0.043257 -0.383688 -0.004843
			CHANNELS 3 Zrotation Yrotation Xrotation
			JOINT rankle
			{
				OFFSET 0.019056 -0.420046 -0.034562
				CHANNELS 3 Zrotation Yrotation Xrotation
				JOINT rtoe
				{
					OFFSET -0.034840 -0.062106 0.130323
					CHANNELS 3 Zrotation Yrotation Xrotation
					End Site
					{
						OFFSET 0.000000 0.000000 0.000000
					}
				}
			}
		}
	}
	JOINT lowerback
	{
		OFFSET 0.004439 0.124404 -0.038385
		CHANNELS 3 Zrotation Yrotation Xrotation
		JOINT upperback
		{
			OFFSET 0.004488 0.137956 0.026820
			CHANNELS 3 Zrotation Yrotation Xrotation
			JOINT chest
			{
				OFFSET -0.002265 0.056032 0.002855
				CHANNELS 3 Zrotation Yrotation Xrotation
				JOINT lowerneck
				{
					OFFSET -0.013390 0.211636 -0.033468
					CHANNELS 3 Zrotation Yrotation Xrotation
					JOINT upperneck
					{
						OFFSET 0.010113 0.088937 0.050410
						CHANNELS 3 Zrotation Yrotation Xrotation
						End Site
						{
							OFFSET 0.000000 0.000000 0.000000
						}
					}
				}
				JOINT lclavicle
				{
					OFFSET 0.071702 0.114000 -0.018898
					CHANNELS 3 Zrotation Yrotation Xrotation
					JOINT lshoulder
					{
						OFFSET 0.122921 0.045205 -0.019046
						CHANNELS 3 Zrotation Yrotation Xrotation
						JOINT lelbow
						{
							OFFSET 0.255332 -0.015649 -0.022946
							CHANNELS 3 Zrotation Yrotation Xrotation
							JOINT lwrist
							{
								OFFSET 0.265709 0.012698 -0.007375
								CHANNELS 3 Zrotation Yrotation Xrotation
								End Site
								{
									OFFSET 0.000000 0.000000 0.000000
								}
							}
						}
					}
				}
				JOINT rclavicle
				{
					OFFSET -0.082954 0.112472 -0.023707
					CHANNELS 3 Zrotation Yrotation Xrotation
					JOINT rshoulder
					{
						OFFSET -0.113228 0.046853 -0.008472
						CHANNELS 3 Zrotation Yrotation Xrotation
						JOINT relbow
						{
							OFFSET -0.260127 -0.014369 -0.031269
							CHANNELS 3 Zrotation Yrotation Xrotation
							JOINT rwrist
							{
								OFFSET -0.269108 0.006794 -0.006027
								CHANNELS 3 Zrotation Yrotation Xrotation
								End Site
								{
									OFFSET 0.000000 0.000000 0.000000
								}
							}
						}
					}
				}
			}
		}
	}
}
MOTION
Frames: 10
Frame Time: 0.033333
0.022816 0.294000 1.015667 99.657612 -4.415926 106.344061 -3.889950 -5.639224 -17.032345 2.701353 4.718888 -2.321985 1.223269 2.091818 1.302214 0.000000 -0.000000 0.000000 -8.292619 -5.932924 -19.304484 -4.825317 -15.590080 2.472253 4.844998 -7.248007 7.815391 0.000000 -0.000000 0.000000 8.111030 2.729381 16.389420 10.521495 0.797567 6.850932 5.096338 2.355841 -2.657930 1.103641 -7.251647 -5.312268 -10.510514 -14.679390 -13.598924 -19.924359 12.603049 -8.412715 -67.524059 -7.491323 25.794179 168.380361 -57.768195 -135.910024 -34.311006 -5.140818 9.850700 27.698869 -5.548405 -9.034767 46.589630 6.695755 11.110384 -160.558459 42.942983 -133.464971 35.635849 -4.712680 13.461126 
0.018584 0.296043 1.014812 100.361163 -5.416664 106.581877 -4.783567 -6.225011 -17.824268 2.486004 4.327394 -1.989295 1.238369 1.684317 1.489892 0.000000 -0.000000 0.000000 -9.302956 -6.631732 -19.973535 -5.026825 -16.291313 3.083003 4.924087 -7.520905 7.508389 0.000000 -0.000000 0.000000 9.196944 2.857269 16.914010 11.141932 1.077165 6.830270 5.550350 2.671103 -2.596616 0.802744 -8.074697 -5.171974 -11.150390 -14.919681 -13.907877 -19.878076 12.711321 -8.184459 -68.339556 -7.366075 25.458825 168.339294 -57.802373 -135.386200 -33.573341 -6.024485 9.564866 27.308673 -5.452125 -8.885531 46.320346 6.820253 10.230042 -160.213742 42.378271 -133.033062 34.699107 -4.486857 14.073353 
0.014254 0.296526 1.013835 100.478942 -6.369436 107.059806 -5.445658 -6.622374 -18.834634 2.110077 4.117417 -1.682927 1.145915 1.385041 1.792709 0.000000 -0.000000 0.000000 -10.129603 -7.034896 -20.493946 -5.234039 -16.559698 2.694423 4.775066 -7.543709 7.794752 0.000000 -0.000000 0.000000 9.989707 2.995403 17.518524 11.442944 1.334866 7.192494 5.726334 3.126239 -2.863671 0.656939 -8.555745 -5.044670 -11.666868 -15.049841 -14.139364 -20.208331 12.877601 -7.938814 -68.429414 -7.110815 25.280164 168.591575 -57.473940 -135.254352 -32.766138 -6.284562 9.137409 27.546261 -5.088256 -8.487459 45.643234 7.120283 9.596719 -159.472442 41.943041 -132.291613 34.093636 -4.757875 14.766971 
0.010609 0.295585 1.013014 99.911358 -7.032937 107.710200 -5.774463 -6.813495 -19.873300 1.864319 4.292092 -1.485952 1.148806 1.101846 1.999729 0.000000 -0.000000 0.000000 -10.694529 -7.084804 -20.803118 -5.144732 -16.536665 1.334333 4.847645 -7.353582 8.537584 0.000000 -0.000000 0.000000 10.460243 3.079353 18.220412 11.496495 1.600187 7.510049 5.742691 3.448773 -3.003341 0.671818 -8.465789 -5.214990 -12.100244 -14.951643 -14.612045 -20.541140 13.330363 -7.947368 -68.590768 -6.208099 25.058930 168.473103 -57.297347 -134.760002 -33.120812 -6.544807 8.852824 27.730126 -4.759730 -8.434193 45.693974 7.461170 9.625750 -158.420408 42.141995 -130.806268 34.135754 -4.901458 15.023001 
0.008477 0.293198 1.012208 98.964856 -7.280704 108.469998 -5.612562 -6.835442 -20.902145 1.716623 4.930761 -1.317300 1.027016 0.818981 1.965425 0.000000 -0.000000 0.000000 -10.674057 -7.258351 -21.039831 -4.801231 -16.518491 -0.429609 5.068262 -6.772384 9.518422 0.000000 -0.000000 0.000000 10.582761 3.232953 18.774281 11.436432 1.678526 7.655918 5.609458 3.554038 -3.214169 0.559002 -7.969581 -5.434588 -12.269829 -14.699888 -15.056339 -20.802598 13.810375 -7.703150 -68.786469 -5.178472 24.761118 168.472396 -57.101174 -134.817098 -35.059282 -5.789212 9.343349 28.547572 -4.281255 -7.791770 45.074258 8.168696 9.491090 -157.406342 42.274878 -129.936278 35.535552 -6.298801 16.070589 
0.006610 0.288887 1.011170 97.527763 -7.126473 109.374916 -5.010574 -6.567912 -21.965556 1.683062 5.626807 -1.262072 0.936963 0.871752 2.028047 0.000000 -0.000000 0.000000 -10.269945 -6.872541 -21.977432 -4.588930 -16.293529 -1.332542 5.214588 -6.247364 10.089072 0.000000 -0.000000 0.000000 10.199680 3.352933 19.214674 10.970907 1.977715 7.807609 5.344916 3.664411 -3.427138 0.606552 -6.790751 -6.501929 -12.263390 -14.745147 -15.377002 -20.948176 13.923861 -7.813041 -68.328478 -4.245447 24.752321 168.256635 -57.202552 -134.439307 -34.881773 -6.152948 9.152072 29.213944 -3.896447 -7.571047 45.315300 8.236891 9.823027 -157.081083 42.366309 -129.317882 34.869012 -6.378730 16.484568 
0.006934 0.284763 1.010271 96.632390 -6.813352 109.996486 -4.379832 -6.452973 -22.772692 1.881418 6.138072 -0.903414 0.903021 1.191641 1.924936 0.000000 -0.000000 0.000000 -9.679562 -6.825319 -22.890240 -4.350975 -16.046090 -1.315062 5.215488 -5.850002 10.065486 0.000000 -0.000000 0.000000 9.954603 3.270766 19.072903 10.313101 1.783007 7.720780 4.951754 3.536978 -3.568611 0.024879 -6.005002 -7.360099 -11.903738 -14.543778 -15.681822 -21.301773 13.457110 -7.706845 -67.602451 -3.815893 24.495897 167.978057 -57.483282 -133.807373 -34.817539 -6.105400 9.219930 29.301625 -3.723439 -7.238408 46.113948 7.884560 9.850854 -157.336391 42.610023 -129.290572 34.718740 -6.206598 16.114832 
0.009322 0.279888 1.010531 95.905095 -6.293047 109.971555 -3.702418 -6.063815 -22.692116 2.130432 6.574894 -0.582642 0.864597 1.425948 1.618471 0.000000 -0.000000 0.000000 -8.945293 -6.472285 -22.989419 -4.130413 -15.721414 -1.173315 5.050930 -5.660788 9.836970 0.000000 -0.000000 0.000000 9.442131 2.998954 18.822559 9.532877 1.507035 7.990401 4.358182 3.288806 -3.935352 -0.346624 -5.238944 -8.082838 -11.614039 -14.489226 -15.617773 -21.457416 13.037769 -7.871627 -67.293511 -3.903505 24.694599 167.162353 -57.904329 -132.945913 -36.157749 -5.377046 9.826781 29.451657 -3.680987 -7.224176 46.938638 7.393326 10.296030 -157.272124 42.873238 -129.035498 35.341738 -6.381249 15.811263 
0.013611 0.274876 1.011535 95.350898 -5.836774 109.394882 -3.133897 -5.760045 -22.015527 2.404442 6.788063 -0.038497 0.786220 1.948889 1.235768 0.000000 -0.000000 0.000000 -8.269912 -5.950387 -22.344704 -4.075183 -15.540383 -0.921328 4.851670 -5.531867 9.379167 0.000000 -0.000000 0.000000 8.558447 2.578318 18.459531 8.536413 1.025563 7.985402 3.693936 3.064940 -3.992734 -0.678167 -4.833954 -8.230036 -10.552310 -14.327933 -15.579581 -21.662421 12.386641 -7.905076 -67.067370 -4.332485 24.865067 166.236650 -58.108469 -131.907399 -36.232404 -4.760987 10.932277 29.423913 -3.685248 -7.321842 47.635949 6.582672 10.538496 -157.774090 43.371281 -129.321948 35.771281 -6.276677 15.537705 
0.018439 0.269301 1.012559 94.808614 -5.402415 108.734413 -2.468592 -5.603929 -21.202403 2.609714 7.148834 0.525079 0.727211 2.489885 0.854410 0.000000 -0.000000 0.000000 -7.552184 -5.322248 -21.695865 -4.186046 -15.315896 -0.441792 4.600242 -5.600283 8.816755 0.000000 -0.000000 0.000000 7.342918 2.151685 17.646978 7.325948 0.392441 8.186414 2.880862 2.814088 -3.919868 -0.680693 -4.104683 -8.269882 -8.960697 -13.821798 -15.258059 -21.610466 11.848386 -8.053540 -66.989750 -4.845230 25.275061 164.864494 -57.861383 -130.940991 -35.726048 -4.830699 11.500179 29.030331 -3.792753 -7.766701 48.682371 5.723142 11.321220 -158.453888 43.986212 -129.850106 35.933342 -5.826895 14.600091 
